<svg id="logo" xmlns="http://www.w3.org/2000/svg" xmlns:xlink="http://www.w3.org/1999/xlink" version="1.1" x="0px" y="0px" viewBox="0 0 86 84.5" style="enable-background:new 0 0 86 84.5;" xml:space="preserve">
<style type="text/css">
	.st0{fill:#FFFFFF;}
</style>
<g>
	<path class="st0" d="M2.1,29.1c-7.3,22.1,4.8,46.1,26.9,53.3c12.3,4,25.6,2.3,36.4-4.8c0.4-0.2,0.7-0.5,1.1-0.7l-0.4,0.9   c-0.5,1,0,2.2,1,2.7c1,0.5,2.2,0,2.7-1l4.4-9.6c0-0.1,0-0.1,0.1-0.2c0,0,0,0,0,0c0,0,0,0,0,0c0,0,0,0,0,0c0-0.1,0.1-0.3,0.1-0.4   c0,0,0-0.1,0-0.1c0-0.1,0-0.2,0-0.3c0,0,0-0.1,0-0.1c0-0.2-0.1-0.3-0.1-0.4l0,0c-0.1-0.1-0.2-0.3-0.3-0.4c0,0,0,0,0,0   c-0.1-0.1-0.1-0.1-0.2-0.2c0,0,0,0,0,0c0,0,0,0,0,0c-0.1-0.1-0.2-0.1-0.3-0.2c0,0-0.1,0-0.1-0.1c-0.1,0-0.2-0.1-0.2-0.1   c0,0-0.1,0-0.1,0c-0.1,0-0.2-0.1-0.3-0.1c0,0-0.1,0-0.1,0c-0.1,0-0.2,0-0.3,0c0,0-0.1,0-0.1,0c-0.1,0-0.2,0-0.3,0c0,0,0,0-0.1,0   c0,0,0,0,0,0l-9.2,2.5c-1.1,0.3-1.7,1.4-1.4,2.5c0.3,1.1,1.4,1.7,2.5,1.4l1-0.3c-0.5,0.3-0.9,0.7-1.4,1c-9.8,6.4-21.8,8-32.9,4.4   C10.3,72-0.6,50.3,6,30.3C12.6,10.3,34.2-0.6,54.2,6c11.4,3.8,20.3,12.5,24.2,23.9c1,3,1.7,6.2,2,9.4c0.1,1.1,1.1,2,2.2,1.9   c0.8-0.1,1.5-0.6,1.8-1.4c0.1-0.2,0.1-0.5,0.1-0.8c-0.3-3.5-1-7-2.2-10.4C77.9,15.9,68.1,6.3,55.5,2.1C33.3-5.2,9.4,6.9,2.1,29.1z"/>
</g>
<g>
	<path class="st0" d="M40.4,43.1c0,3-1,5.7-2.9,7.9c-1.7,2-4.1,3-7.3,3.1c-0.6,0-2.2,0-4.9,0c-0.5,0-1.3,0-2.3,0c-1,0-1.8,0-2.3,0   c-0.3,0-0.4-0.1-0.4-0.4c0-1.1,0-2.8,0.1-5.1c0.1-2.3,0.1-4,0.1-5.1c0-1.2,0-3-0.1-5.3c-0.1-2.4-0.1-4.1-0.1-5.3   c0-0.2,0.1-0.3,0.4-0.4c0.7-0.1,1.9-0.1,3.6-0.1c3.2,0,5.2,0,6.2,0.1c2.4,0.2,4.4,0.9,5.8,1.9c1.3,0.9,2.3,2.2,3.1,3.9   C40,39.8,40.4,41.4,40.4,43.1z M34.4,43.1c0-1.7-0.5-3.2-1.6-4.3c-1.1-1.1-2.4-1.7-4.2-1.7c-1.6,0-2.4,0.2-2.4,0.6   c0,0.6,0,1.5,0,2.8c0,1.2,0,2.1,0,2.8c0,0.6,0,1.5,0,2.7c0,1.2,0,2.1,0,2.7c0,0.4,0.8,0.7,2.5,0.7c1.8,0,3.2-0.6,4.2-1.8   C33.9,46.4,34.4,45,34.4,43.1z"/>
	<path class="st0" d="M64.3,43.3c0,3.2-1,5.9-3.1,8.1c-2.1,2.2-4.8,3.3-8,3.3c-3.2,0-5.8-1.1-8-3.3c-2.1-2.2-3.1-4.9-3.1-8.1   c0-3.2,1-5.9,3.1-8.1c2.1-2.2,4.8-3.4,8-3.4c3.2,0,5.8,1.1,7.9,3.4C63.3,37.4,64.3,40.1,64.3,43.3z M58.4,43.2c0-1.6-0.5-2.9-1.4-4   c-1-1.1-2.2-1.7-3.8-1.7c-1.5,0-2.7,0.6-3.7,1.8c-1,1.1-1.5,2.4-1.5,3.9c0,1.6,0.5,2.9,1.4,4c1,1.1,2.2,1.7,3.8,1.7   c1.5,0,2.7-0.6,3.7-1.8C57.9,46,58.4,44.7,58.4,43.2z"/>
</g>
<g>
	<path class="st0" d="M74.7,58.1v-7.6c0-0.4,0.1-0.7,0.3-0.9c0.2-0.2,0.4-0.3,0.7-0.3c0.3,0,0.5,0.1,0.7,0.3s0.3,0.5,0.3,0.9v7.6   c0,0.4-0.1,0.7-0.3,0.9c-0.2,0.2-0.4,0.3-0.7,0.3c-0.3,0-0.5-0.1-0.7-0.3C74.8,58.8,74.7,58.5,74.7,58.1z"/>
	<path class="st0" d="M85.1,51.1h-2.1v7c0,0.4-0.1,0.7-0.3,0.9s-0.4,0.3-0.7,0.3c-0.3,0-0.5-0.1-0.7-0.3c-0.2-0.2-0.3-0.5-0.3-0.9   v-7h-2.1c-0.3,0-0.6-0.1-0.7-0.2c-0.2-0.1-0.2-0.3-0.2-0.6c0-0.2,0.1-0.4,0.3-0.6c0.2-0.1,0.4-0.2,0.7-0.2h6.2   c0.3,0,0.6,0.1,0.8,0.2c0.2,0.1,0.2,0.3,0.2,0.6s-0.1,0.4-0.2,0.6C85.6,51,85.4,51.1,85.1,51.1z"/>
</g>
</svg>

