<!-- Generated by IcoMoon.io -->
<svg id="search" version="1.1" xmlns="http://www.w3.org/2000/svg" width="24" height="24" viewBox="0 0 24 24">
  <path d="M10.125 0c0.002 0 0.004 0 0.006 0 5.592 0 10.125 4.533 10.125 10.125 0 2.514-0.916 4.813-2.433 6.584l0.011-0.014 5.865 5.805c0.12 0.148 0.193 0.339 0.193 0.546 0 0.48-0.39 0.87-0.87 0.87-0.204 0-0.391-0.070-0.54-0.187l0.002 0.001-5.865-5.82c-1.741 1.456-4.004 2.34-6.474 2.34-5.592 0-10.125-4.533-10.125-10.125 0-5.584 4.521-10.113 10.103-10.125h0.001zM1.83 10.155c-0.010 0.154-0.016 0.334-0.016 0.515 0 4.606 3.734 8.34 8.34 8.34s8.34-3.734 8.34-8.34c0-0.171-0.005-0.34-0.015-0.508l0.001 0.023c-0.264-4.393-3.89-7.855-8.326-7.855-4.425 0-8.045 3.446-8.323 7.801l-0.001 0.024z"></path>
</svg>
